HIERARCHY
ROOT Hips
{
	OFFSET 0.000000 100.481300 0.000000
	CHANNELS 6 Xposition Yposition Zposition Xrotation Yrotation Zrotation
	JOINT Spine
	{
		OFFSET -0.279200 12.230698 -2.892100
		CHANNELS 3 Xrotation Yrotation Zrotation
		JOINT Spine1
		{
			OFFSET -0.325700 14.269203 -3.374200
			CHANNELS 3 Xrotation Yrotation Zrotation
			JOINT Spine2
			{
				OFFSET -0.372300 16.307602 -0.352600
				CHANNELS 3 Xrotation Yrotation Zrotation
				JOINT Neck
				{
					OFFSET -0.418800 17.814194 8.416900
					CHANNELS 3 Xrotation Yrotation Zrotation
					JOINT Head
					{
						OFFSET 0.000000 7.031097 3.806800
						CHANNELS 3 Xrotation Yrotation Zrotation
						JOINT HeadTop_End
						{
							OFFSET 0.000000 24.646606 12.978600
							CHANNELS 3 Xrotation Yrotation Zrotation
							End Site
							{
								OFFSET 0.000000 27.854965 0.000000
							}
						}
					}
				}
				JOINT LeftShoulder
				{
					OFFSET 16.952999 14.495407 -7.737500
					CHANNELS 3 Xrotation Yrotation Zrotation
					JOINT LeftArm
					{
						OFFSET 9.308998 -2.777710 0.208600
						CHANNELS 3 Xrotation Yrotation Zrotation
						JOINT LeftForeArm
						{
							OFFSET 29.972298 0.000000 0.000000
							CHANNELS 3 Xrotation Yrotation Zrotation
							JOINT LeftHand
							{
								OFFSET 26.026505 0.000000 0.000000
								CHANNELS 3 Xrotation Yrotation Zrotation
								JOINT LeftHandThumb1
								{
									OFFSET 12.240501 -7.147949 9.207150
									CHANNELS 3 Xrotation Yrotation Zrotation
									JOINT LeftHandThumb2
									{
										OFFSET 4.138618 -2.389435 2.389433
										CHANNELS 3 Xrotation Yrotation Zrotation
										JOINT LeftHandThumb3
										{
											OFFSET 2.726913 -1.574387 1.574386
											CHANNELS 3 Xrotation Yrotation Zrotation
											JOINT LeftHandThumb4
											{
												OFFSET 3.941010 -2.275345 2.275342
												CHANNELS 3 Xrotation Yrotation Zrotation
												End Site
												{
													OFFSET -0.005798 5.087799 0.009903
												}
											}
										}
									}
								}
								JOINT LeftHandIndex1
								{
									OFFSET 24.424698 -1.985611 5.953459
									CHANNELS 3 Xrotation Yrotation Zrotation
									JOINT LeftHandIndex2
									{
										OFFSET 6.426697 0.000000 0.000000
										CHANNELS 3 Xrotation Yrotation Zrotation
										JOINT LeftHandIndex3
										{
											OFFSET 5.337898 0.000000 0.000000
											CHANNELS 3 Xrotation Yrotation Zrotation
											JOINT LeftHandIndex4
											{
												OFFSET 4.409401 0.000000 0.000000
												CHANNELS 3 Xrotation Yrotation Zrotation
												End Site
												{
													OFFSET 0.000000 4.409363 0.014373
												}
											}
										}
									}
								}
								JOINT LeftHandMiddle1
								{
									OFFSET 23.810104 0.000000 0.000000
									CHANNELS 3 Xrotation Yrotation Zrotation
									JOINT LeftHandMiddle2
									{
										OFFSET 7.176498 0.000000 0.000000
										CHANNELS 3 Xrotation Yrotation Zrotation
										JOINT LeftHandMiddle3
										{
											OFFSET 6.774902 0.000000 0.000000
											CHANNELS 3 Xrotation Yrotation Zrotation
											JOINT LeftHandMiddle4
											{
												OFFSET 5.403328 0.000000 0.000000
												CHANNELS 3 Xrotation Yrotation Zrotation
												End Site
												{
													OFFSET -0.027702 5.403244 0.017414
												}
											}
										}
									}
								}
								JOINT LeftHandRing1
								{
									OFFSET 22.908401 -0.839279 -6.020567
									CHANNELS 3 Xrotation Yrotation Zrotation
									JOINT LeftHandRing2
									{
										OFFSET 6.337502 0.000000 0.000000
										CHANNELS 3 Xrotation Yrotation Zrotation
										JOINT LeftHandRing3
										{
											OFFSET 5.779297 0.000000 0.000000
											CHANNELS 3 Xrotation Yrotation Zrotation
											JOINT LeftHandRing4
											{
												OFFSET 4.965698 0.000000 0.000000
												CHANNELS 3 Xrotation Yrotation Zrotation
												End Site
												{
													OFFSET 0.000000 4.965668 0.016186
												}
											}
										}
									}
								}
								JOINT LeftHandPinky1
								{
									OFFSET 20.037003 -1.530319 -10.950146
									CHANNELS 3 Xrotation Yrotation Zrotation
									JOINT LeftHandPinky2
									{
										OFFSET 5.254700 0.000000 0.000000
										CHANNELS 3 Xrotation Yrotation Zrotation
										JOINT LeftHandPinky3
										{
											OFFSET 4.810204 0.000000 0.000000
											CHANNELS 3 Xrotation Yrotation Zrotation
											JOINT LeftHandPinky4
											{
												OFFSET 3.647202 0.000000 0.000000
												CHANNELS 3 Xrotation Yrotation Zrotation
												End Site
												{
													OFFSET 0.000000 3.647186 0.011889
												}
											}
										}
									}
								}
							}
						}
					}
				}
				JOINT RightShoulder
				{
					OFFSET -15.141001 14.495407 -7.737500
					CHANNELS 3 Xrotation Yrotation Zrotation
					JOINT RightArm
					{
						OFFSET -9.308998 -2.777710 0.208500
						CHANNELS 3 Xrotation Yrotation Zrotation
						JOINT RightForeArm
						{
							OFFSET -29.972300 0.000000 0.000000
							CHANNELS 3 Xrotation Yrotation Zrotation
							JOINT RightHand
							{
								OFFSET -26.026505 0.000000 0.000000
								CHANNELS 3 Xrotation Yrotation Zrotation
								JOINT RightHandThumb1
								{
									OFFSET -12.240601 -7.148026 9.207092
									CHANNELS 3 Xrotation Yrotation Zrotation
									JOINT RightHandThumb2
									{
										OFFSET -4.138618 -2.389435 2.389433
										CHANNELS 3 Xrotation Yrotation Zrotation
										JOINT RightHandThumb3
										{
											OFFSET -2.726974 -1.574417 1.574421
											CHANNELS 3 Xrotation Yrotation Zrotation
											JOINT RightHandThumb4
											{
												OFFSET -3.941010 -2.275345 2.275343
												CHANNELS 3 Xrotation Yrotation Zrotation
												End Site
												{
													OFFSET 0.005814 5.087799 0.009927
												}
											}
										}
									}
								}
								JOINT RightHandIndex1
								{
									OFFSET -24.424698 -1.985657 5.953444
									CHANNELS 3 Xrotation Yrotation Zrotation
									JOINT RightHandIndex2
									{
										OFFSET -6.426697 0.000000 0.000000
										CHANNELS 3 Xrotation Yrotation Zrotation
										JOINT RightHandIndex3
										{
											OFFSET -5.337898 0.000000 0.000000
											CHANNELS 3 Xrotation Yrotation Zrotation
											JOINT RightHandIndex4
											{
												OFFSET -4.409401 0.000000 0.000000
												CHANNELS 3 Xrotation Yrotation Zrotation
												End Site
												{
													OFFSET 0.000000 4.409363 0.014408
												}
											}
										}
									}
								}
								JOINT RightHandMiddle1
								{
									OFFSET -23.810097 0.000000 0.000000
									CHANNELS 3 Xrotation Yrotation Zrotation
									JOINT RightHandMiddle2
									{
										OFFSET -7.176498 0.000000 0.000000
										CHANNELS 3 Xrotation Yrotation Zrotation
										JOINT RightHandMiddle3
										{
											OFFSET -6.774902 0.000000 0.000000
											CHANNELS 3 Xrotation Yrotation Zrotation
											JOINT RightHandMiddle4
											{
												OFFSET -5.403328 0.000000 0.000000
												CHANNELS 3 Xrotation Yrotation Zrotation
												End Site
												{
													OFFSET 0.027702 5.403244 0.017457
												}
											}
										}
									}
								}
								JOINT RightHandRing1
								{
									OFFSET -22.908302 -0.839325 -6.020576
									CHANNELS 3 Xrotation Yrotation Zrotation
									JOINT RightHandRing2
									{
										OFFSET -6.337502 0.000000 0.000000
										CHANNELS 3 Xrotation Yrotation Zrotation
										JOINT RightHandRing3
										{
											OFFSET -5.779297 0.000000 0.000000
											CHANNELS 3 Xrotation Yrotation Zrotation
											JOINT RightHandRing4
											{
												OFFSET -4.965698 0.000000 0.000000
												CHANNELS 3 Xrotation Yrotation Zrotation
												End Site
												{
													OFFSET 0.000000 4.965668 0.016226
												}
											}
										}
									}
								}
								JOINT RightHandPinky1
								{
									OFFSET -20.037003 -1.530334 -10.950259
									CHANNELS 3 Xrotation Yrotation Zrotation
									JOINT RightHandPinky2
									{
										OFFSET -5.254700 0.000000 0.000000
										CHANNELS 3 Xrotation Yrotation Zrotation
										JOINT RightHandPinky3
										{
											OFFSET -4.810204 0.000000 0.000000
											CHANNELS 3 Xrotation Yrotation Zrotation
											JOINT RightHandPinky4
											{
												OFFSET -3.647202 0.000000 0.000000
												CHANNELS 3 Xrotation Yrotation Zrotation
												End Site
												{
													OFFSET 0.000000 3.647186 0.011917
												}
											}
										}
									}
								}
							}
						}
					}
				}
			}
		}
	}
	JOINT LeftUpLeg
	{
		OFFSET 15.427100 -6.655098 0.678600
		CHANNELS 3 Xrotation Yrotation Zrotation
		JOINT LeftLeg
		{
			OFFSET 4.081073 -39.591068 13.024000
			CHANNELS 3 Xrotation Yrotation Zrotation
			JOINT LeftFoot
			{
				OFFSET -4.081074 -37.707932 -15.979700
				CHANNELS 3 Xrotation Yrotation Zrotation
				JOINT LeftToeBase
				{
					OFFSET 5.346399 -15.068900 20.645000
					CHANNELS 3 Xrotation Yrotation Zrotation
					JOINT LeftToe_End
					{
						OFFSET 2.754700 0.931300 11.300900
						CHANNELS 3 Xrotation Yrotation Zrotation
						End Site
						{
							OFFSET 0.000000 11.669021 0.000000
						}
					}
				}
			}
		}
	}
	JOINT RightUpLeg
	{
		OFFSET -15.569500 -6.655098 0.678600
		CHANNELS 3 Xrotation Yrotation Zrotation
		JOINT RightLeg
		{
			OFFSET -4.081825 -39.591045 13.023800
			CHANNELS 3 Xrotation Yrotation Zrotation
			JOINT RightFoot
			{
				OFFSET 4.081824 -37.707954 -15.979600
				CHANNELS 3 Xrotation Yrotation Zrotation
				JOINT RightToeBase
				{
					OFFSET -5.346400 -15.068900 20.645000
					CHANNELS 3 Xrotation Yrotation Zrotation
					JOINT RightToe_End
					{
						OFFSET -2.754700 0.931300 11.300900
						CHANNELS 3 Xrotation Yrotation Zrotation
						End Site
						{
							OFFSET 0.000000 11.669021 0.000000
						}
					}
				}
			}
		}
	}
}
MOTION
Frames: 4
Frame Time: 0.033333
7.767726 73.295509 0.719907 -0.754681 -37.943381 0.826644 31.447233 4.244178 2.716799 7.220108 0.743045 1.002660 7.221418 0.742487 0.989667 15.523787 1.746298 -1.889073 -6.578740 9.908401 -1.450040 -0.000001 -0.000000 -0.000000 3.306019 -29.341967 6.841736 -42.573935 23.666182 -46.785075 -0.000024 -135.069313 -0.000017 -2.934728 -6.839255 34.851706 -6.141229 -11.690801 -6.761679 9.914109 42.595512 3.409870 -0.422812 8.108100 27.509109 0.000000 -0.000001 -0.000001 0.255311 3.378213 -45.814344 5.654095 5.847755 -88.067455 2.162145 4.544809 -50.866386 -0.000000 -0.000001 0.000000 -0.461475 3.841596 -39.722669 6.450744 5.820361 -95.892871 2.182892 4.561572 -51.127743 -0.000002 -0.000003 0.000000 0.469719 4.966830 -39.799444 8.181043 5.368613 -113.503018 3.200488 5.218114 -63.022982 0.000002 0.000000 -0.000002 -3.762440 9.063688 -45.253825 5.342546 5.829002 -85.005311 8.716835 5.103331 -119.369181 -0.000005 0.000000 -0.000000 4.880131 16.384526 -8.248003 -58.371118 14.611750 78.058851 -0.000020 106.328956 0.000026 24.966626 7.576001 -26.562440 -7.341098 13.749655 7.412322 9.855794 -44.489089 -3.903262 -0.115781 -14.513086 -28.973854 0.000000 0.000000 -0.000002 -0.124370 -2.384783 45.108857 4.500586 -4.654537 88.071150 1.723214 -3.618376 50.920109 -0.000002 -0.000000 0.000001 -0.761621 -2.932906 39.031058 5.133889 -4.632757 95.881663 1.739743 -3.631694 51.181336 -0.000002 0.000003 0.000001 0.154766 -4.068817 39.122668 6.509729 -4.273594 113.462891 2.549592 -4.153924 63.067337 0.000002 -0.000005 -0.000002 -4.198877 -8.025516 44.637766 4.252921 -4.639645 85.014805 6.935965 -4.062624 119.322271 0.000004 0.000000 -0.000001 -43.514520 0.283076 15.956343 57.855425 -9.526801 -2.739502 -14.405837 -10.140399 -7.523995 -1.594029 -0.000002 -0.000004 -0.000000 -0.000002 -0.000000 -19.948659 -13.186639 -35.311207 51.758262 -2.836675 -6.899102 -19.321203 -15.372529 30.314077 -0.773441 0.000002 0.000008 0.000000 -0.000000 0.000000 
7.443000 73.687759 0.979705 -0.755189 -37.234937 -0.761589 30.763684 4.541318 1.225826 7.052100 0.964287 0.644706 7.053216 0.964007 0.627126 15.028006 1.836718 -2.376656 -8.658641 10.161315 -1.501762 0.000001 -0.000000 0.000001 3.034909 -29.585832 4.596658 -46.579609 22.526428 -40.974448 0.000004 -133.331085 -0.000007 -5.136026 -6.600212 32.701744 -6.141225 -11.690799 -6.761683 9.914106 42.595515 3.409870 -0.422813 8.108098 27.509111 -0.000000 -0.000000 0.000000 0.255311 3.378216 -45.814341 5.654090 5.847756 -88.067448 2.162144 4.544805 -50.866386 -0.000001 -0.000001 0.000000 -0.461474 3.841595 -39.722669 6.450747 5.820359 -95.892871 2.182895 4.561573 -51.127740 0.000000 -0.000002 -0.000001 0.469720 4.966832 -39.799441 8.181047 5.368613 -113.503018 3.200487 5.218117 -63.022975 0.000002 -0.000001 -0.000002 -3.762438 9.063689 -45.253828 5.342544 5.829001 -85.005317 8.716835 5.103330 -119.369181 -0.000001 -0.000001 -0.000000 4.310437 16.136633 -9.121100 -59.706447 14.155503 77.831911 0.000028 107.104497 -0.000040 25.915203 7.145755 -25.223839 -7.341097 13.749656 7.412321 9.855795 -44.489089 -3.903257 -0.115781 -14.513086 -28.973864 0.000001 0.000000 0.000003 -0.124372 -2.384786 45.108857 4.500584 -4.654540 88.071150 1.723215 -3.618381 50.920112 0.000001 -0.000001 -0.000000 -0.761621 -2.932904 39.031055 5.133883 -4.632759 95.881663 1.739742 -3.631700 51.181336 -0.000001 0.000001 0.000001 0.154762 -4.068817 39.122664 6.509729 -4.273595 113.462891 2.549588 -4.153919 63.067330 0.000001 -0.000000 0.000002 -4.198881 -8.025518 44.637766 4.252920 -4.639644 85.014805 6.935970 -4.062624 119.322271 -0.000002 0.000000 -0.000000 -43.957810 0.289778 17.071539 58.095226 -10.153457 -1.845751 -14.425390 -10.848169 -7.378563 -1.594029 -0.000000 -0.000004 -0.000000 -0.000000 -0.000000 -18.230188 -14.714958 -32.966721 50.327504 -3.074099 -6.999603 -19.170821 -15.960052 30.042929 -0.872695 -0.000012 -0.000003 0.000000 -0.000001 -0.000001 
7.180604 73.967682 1.411268 -1.252570 -37.035669 -2.232991 29.912554 4.856124 -0.115615 6.850780 1.164865 0.309519 6.851452 1.164526 0.288439 14.297490 2.020027 -2.894135 -10.430597 10.582028 -1.825396 0.000001 0.000000 0.000002 2.755222 -29.078222 3.400757 -50.627551 22.211174 -36.586328 0.000016 -131.737724 0.000027 -8.109328 -6.562774 29.521604 -6.141227 -11.690804 -6.761683 9.914110 42.595512 3.409870 -0.422813 8.108096 27.509109 -0.000000 -0.000001 -0.000001 0.255310 3.378210 -45.814348 5.654098 5.847754 -88.067455 2.162145 4.544808 -50.866386 -0.000001 -0.000000 0.000002 -0.461473 3.841591 -39.722669 6.450750 5.820361 -95.892864 2.182893 4.561573 -51.127743 -0.000000 0.000006 0.000001 0.469719 4.966828 -39.799444 8.181043 5.368614 -113.503018 3.200488 5.218115 -63.022975 0.000001 0.000000 0.000002 -3.762440 9.063687 -45.253825 5.342542 5.829003 -85.005317 8.716836 5.103327 -119.369194 -0.000002 0.000000 -0.000001 3.754074 16.382069 -10.170468 -61.615137 13.695888 77.768609 0.000036 107.786908 -0.000036 26.988656 7.257448 -23.820411 -7.341098 13.749659 7.412324 9.855799 -44.489093 -3.903260 -0.115783 -14.513088 -28.973861 0.000001 -0.000000 -0.000001 -0.124374 -2.384782 45.108857 4.500582 -4.654535 88.071143 1.723213 -3.618382 50.920116 0.000002 -0.000002 -0.000003 -0.761625 -2.932903 39.031058 5.133885 -4.632756 95.881663 1.739742 -3.631696 51.181340 0.000001 -0.000001 0.000000 0.154761 -4.068815 39.122668 6.509730 -4.273596 113.462891 2.549585 -4.153918 63.067337 0.000001 0.000000 -0.000000 -4.198879 -8.025516 44.637766 4.252918 -4.639644 85.014805 6.935972 -4.062625 119.322271 -0.000000 -0.000000 0.000002 -43.473171 0.207153 18.076879 58.434570 -10.079144 -1.265356 -15.011417 -11.593126 -7.518356 -1.594030 0.000002 -0.000004 -0.000000 0.000002 -0.000000 -16.496874 -15.799648 -31.433705 49.005617 -3.228228 -7.068887 -18.996151 -15.950718 30.049400 -0.879553 0.000011 -0.000003 0.000000 0.000000 -0.000000 
6.973017 74.466568 1.988830 -1.850127 -37.397294 -3.252931 28.752743 5.253169 -1.278227 6.592362 1.360183 -0.013604 6.592531 1.359790 -0.037152 13.439109 2.357614 -3.277072 -11.721873 11.290957 -2.338207 -0.000000 0.000000 -0.000001 2.484242 -28.312785 3.230569 -54.976964 23.373925 -32.954659 0.000004 -130.860824 0.000003 -11.405851 -6.404107 25.588528 -6.141228 -11.690799 -6.761682 9.914111 42.595515 3.409869 -0.422814 8.108101 27.509109 0.000000 0.000000 -0.000001 0.255309 3.378221 -45.814344 5.654090 5.847757 -88.067455 2.162145 4.544809 -50.866386 0.000000 -0.000001 -0.000002 -0.461474 3.841596 -39.722666 6.450750 5.820361 -95.892871 2.182890 4.561569 -51.127736 0.000000 0.000003 0.000001 0.469719 4.966836 -39.799444 8.181045 5.368612 -113.503025 3.200487 5.218114 -63.022982 -0.000001 -0.000001 -0.000001 -3.762440 9.063691 -45.253825 5.342539 5.829004 -85.005311 8.716836 5.103328 -119.369181 0.000002 0.000000 0.000000 3.430036 17.084685 -10.961548 -63.836881 13.157842 77.665767 -0.000057 108.422682 0.000051 27.452559 8.007733 -22.136143 -7.341099 13.749655 7.412325 9.855799 -44.489086 -3.903261 -0.115782 -14.513083 -28.973857 0.000000 0.000001 0.000002 -0.124375 -2.384785 45.108857 4.500580 -4.654537 88.071150 1.723213 -3.618379 50.920112 -0.000000 -0.000001 -0.000002 -0.761624 -2.932903 39.031058 5.133891 -4.632754 95.881663 1.739745 -3.631698 51.181343 0.000001 -0.000000 0.000000 0.154761 -4.068816 39.122664 6.509731 -4.273594 113.462891 2.549589 -4.153920 63.067337 0.000001 -0.000001 -0.000001 -4.198877 -8.025515 44.637766 4.252921 -4.639643 85.014805 6.935969 -4.062626 119.322271 -0.000003 -0.000003 0.000002 -42.098882 0.403168 18.499849 58.279170 -10.035051 -0.807395 -15.807288 -11.389749 -7.570897 -1.594029 -0.000000 -0.000004 0.000000 -0.000000 -0.000000 -15.008902 -16.463686 -30.588418 47.375019 -3.384642 -7.147867 -18.540740 -15.385440 30.208953 -0.811190 -0.000006 0.000003 -0.000000 -0.000000 -0.000000 
